<svg width="544" height="433" viewBox="0 0 544 433" fill="none" xmlns="http://www.w3.org/2000/svg">
<rect x="143" y="56" width="400" height="232.678" fill="black"/>
<rect x="52" y="109.322" width="400" height="232.678" fill="white"/>
<path d="M402.851 289.404L542.927 430.184V289.404H402.851Z" fill="black" stroke="black" stroke-width="2"/>
<path d="M289.369 145.202L429.445 285.981V145.202H289.369Z" stroke="black" stroke-width="2"/>
<path d="M285.964 146.625L145.888 287.404H285.964V146.625Z" stroke="black" stroke-width="2"/>
<path d="M318.538 345.43C318.538 354.837 326.125 362.455 335.474 362.455C344.822 362.455 352.409 354.837 352.409 345.43C352.409 336.022 344.822 328.404 335.474 328.404C326.125 328.404 318.538 336.022 318.538 345.43Z" fill="black" stroke="black" stroke-width="2"/>
<path d="M0.999977 127.979C0.999977 137.387 8.58685 145.005 17.9352 145.005C27.2835 145.005 34.8704 137.387 34.8704 127.979C34.8704 118.572 27.2835 110.954 17.9352 110.954C8.58685 110.954 0.999977 118.572 0.999977 127.979Z" fill="black" stroke="black" stroke-width="2"/>
<path d="M265.545 350.123C265.545 389.396 297.221 421.224 336.285 421.224C375.35 421.224 407.026 389.396 407.026 350.123C407.026 310.85 375.35 279.022 336.285 279.022C297.221 279.022 265.545 310.85 265.545 350.123Z" stroke="black" stroke-width="2"/>
<rect x="-1" y="1" width="141.482" height="142.202" transform="matrix(-1 0 0 1 284.964 0)" fill="black" stroke="black" stroke-width="2"/>
</svg>
