<svg width="1440" height="2187" viewBox="0 0 1440 2187" fill="none" xmlns="http://www.w3.org/2000/svg">
<path d="M1210.56 539.654L1070.48 680.434V539.654H1210.56Z" fill="black" stroke="black" stroke-width="2"/>
<path d="M1354.04 395.452L1213.96 536.232V395.452H1354.04Z" stroke="black" stroke-width="2"/>
<path d="M1357.45 396.875L1497.52 537.654H1357.45V396.875Z" stroke="black" stroke-width="2"/>
<path d="M1211.96 324.154C1211.96 363.427 1180.29 395.255 1141.22 395.255C1102.16 395.255 1070.48 363.427 1070.48 324.154C1070.48 284.881 1102.16 253.053 1141.22 253.053C1180.29 253.053 1211.96 284.881 1211.96 324.154Z" stroke="black" stroke-width="2"/>
<path d="M960.87 556.68C960.87 566.087 953.284 573.705 943.935 573.705C934.587 573.705 927 566.087 927 556.68C927 547.272 934.587 539.654 943.935 539.654C953.284 539.654 960.87 547.272 960.87 556.68Z" fill="black" stroke="black" stroke-width="2"/>
<path d="M1377.86 623.373C1377.86 662.646 1346.19 694.474 1307.12 694.474C1268.06 694.474 1236.38 662.646 1236.38 623.373C1236.38 584.1 1268.06 552.272 1307.12 552.272C1346.19 552.272 1377.86 584.1 1377.86 623.373Z" stroke="black" stroke-width="2"/>
<rect x="1357.45" y="251.25" width="141.482" height="142.202" fill="black" stroke="black" stroke-width="2"/>
<path d="M110.04 274.85L-30.0364 415.629V274.85H110.04Z" stroke="black" stroke-width="2"/>
<path d="M113.445 276.273L253.521 417.052H113.445L113.445 276.273Z" stroke="black" stroke-width="2"/>
<path d="M398.409 257.627C398.409 267.035 390.822 274.652 381.474 274.652C372.125 274.652 364.539 267.035 364.539 257.627C364.539 248.22 372.125 240.602 381.474 240.602C390.822 240.602 398.409 248.22 398.409 257.627Z" fill="black" stroke="black" stroke-width="2"/>
<path d="M133.864 502.771C133.864 542.043 102.188 573.872 63.1235 573.872C24.0591 573.872 -7.61743 542.043 -7.61743 502.771C-7.61743 463.498 24.0591 431.67 63.1235 431.67C102.188 431.67 133.864 463.498 133.864 502.771Z" stroke="black" stroke-width="2"/>
<rect x="113.445" y="130.648" width="141.482" height="142.202" fill="black" stroke="black" stroke-width="2"/>
<path d="M1437.56 967.708L1297.48 1108.49V967.708H1437.56Z" fill="black" stroke="black" stroke-width="2"/>
<path d="M1581.04 823.506L1440.96 964.285V823.506H1581.04Z" stroke="black" stroke-width="2"/>
<path d="M1438.96 752.207C1438.96 791.48 1407.29 823.308 1368.22 823.308C1329.16 823.308 1297.48 791.48 1297.48 752.207C1297.48 712.934 1329.16 681.106 1368.22 681.106C1407.29 681.106 1438.96 712.934 1438.96 752.207Z" stroke="black" stroke-width="2"/>
<path d="M1187.87 984.733C1187.87 994.141 1180.28 1001.76 1170.94 1001.76C1161.59 1001.76 1154 994.141 1154 984.733C1154 975.326 1161.59 967.708 1170.94 967.708C1180.28 967.708 1187.87 975.326 1187.87 984.733Z" fill="black" stroke="black" stroke-width="2"/>
<path d="M740.5 2038.26C740.5 2049.09 731.767 2057.86 721 2057.86C710.233 2057.86 701.5 2049.09 701.5 2038.26C701.5 2027.43 710.233 2018.66 721 2018.66C731.767 2018.66 740.5 2027.43 740.5 2038.26Z" stroke="#F2F2F2"/>
<path d="M740.5 2038.26C740.5 2049.09 731.767 2057.86 721 2057.86C710.233 2057.86 701.5 2049.09 701.5 2038.26C701.5 2027.43 710.233 2018.66 721 2018.66C731.767 2018.66 740.5 2027.43 740.5 2038.26Z" stroke="#F2F2F2"/>
<path d="M676.5 2038.26C676.5 2049.09 667.767 2057.86 657 2057.86C646.233 2057.86 637.5 2049.09 637.5 2038.26C637.5 2027.43 646.233 2018.66 657 2018.66C667.767 2018.66 676.5 2027.43 676.5 2038.26Z" stroke="#F2F2F2"/>
<path d="M804.5 2038.26C804.5 2049.09 795.767 2057.86 785 2057.86C774.233 2057.86 765.5 2049.09 765.5 2038.26C765.5 2027.43 774.233 2018.66 785 2018.66C795.767 2018.66 804.5 2027.43 804.5 2038.26Z" stroke="#F2F2F2"/>
<path d="M868.5 2038.26C868.5 2049.09 859.767 2057.86 849 2057.86C838.233 2057.86 829.5 2049.09 829.5 2038.26C829.5 2027.43 838.233 2018.66 849 2018.66C859.767 2018.66 868.5 2027.43 868.5 2038.26Z" stroke="#F2F2F2"/>
<path d="M612.5 2038.26C612.5 2049.09 603.767 2057.86 593 2057.86C582.233 2057.86 573.5 2049.09 573.5 2038.26C573.5 2027.43 582.233 2018.66 593 2018.66C603.767 2018.66 612.5 2027.43 612.5 2038.26Z" stroke="#F2F2F2"/>
<path d="M115.709 2059.75L5.58609 2170.42V2059.75H115.709Z" fill="#F2F2F2" stroke="#F2F2F2" stroke-width="1.57232"/>
<path d="M228.509 1946.38L118.386 2057.06V1946.38H228.509Z" stroke="#F2F2F2" stroke-width="1.57232"/>
<path d="M231.186 1947.5L341.309 2058.17H231.186V1947.5Z" stroke="#F2F2F2" stroke-width="1.57232"/>
<path d="M116.814 1890.33C116.814 1921.2 91.9109 1946.22 61.1999 1946.22C30.489 1946.22 5.58609 1921.2 5.58609 1890.33C5.58609 1859.45 30.489 1834.43 61.1999 1834.43C91.9109 1834.43 116.814 1859.45 116.814 1890.33Z" stroke="#F2F2F2" stroke-width="1.57232"/>
<path d="M455.214 1932.84C455.214 1940.24 449.249 1946.22 441.9 1946.22C434.551 1946.22 428.586 1940.24 428.586 1932.84C428.586 1925.44 434.551 1919.46 441.9 1919.46C449.249 1919.46 455.214 1925.44 455.214 1932.84Z" fill="#F2F2F2" stroke="#F2F2F2" stroke-width="1.57232"/>
<path d="M247.239 2125.56C247.239 2156.44 222.336 2181.46 191.625 2181.46C160.914 2181.46 136.011 2156.44 136.011 2125.56C136.011 2094.69 160.914 2069.67 191.625 2069.67C222.336 2069.67 247.239 2094.69 247.239 2125.56Z" stroke="#F2F2F2" stroke-width="1.57232"/>
<rect x="231.186" y="1833.01" width="111.228" height="111.794" fill="#F2F2F2" stroke="#F2F2F2" stroke-width="1.57232"/>
<path d="M1326.29 2058.75L1436.41 2169.42V2058.75H1326.29Z" fill="#F2F2F2" stroke="#F2F2F2" stroke-width="1.57232"/>
<path d="M1213.49 1945.38L1323.61 2056.06V1945.38H1213.49Z" stroke="#F2F2F2" stroke-width="1.57232"/>
<path d="M1210.81 1946.5L1100.69 2057.17H1210.81V1946.5Z" stroke="#F2F2F2" stroke-width="1.57232"/>
<path d="M1325.19 1889.33C1325.19 1920.2 1350.09 1945.22 1380.8 1945.22C1411.51 1945.22 1436.41 1920.2 1436.41 1889.33C1436.41 1858.45 1411.51 1833.43 1380.8 1833.43C1350.09 1833.43 1325.19 1858.45 1325.19 1889.33Z" stroke="#F2F2F2" stroke-width="1.57232"/>
<path d="M986.786 1931.84C986.786 1939.24 992.751 1945.22 1000.1 1945.22C1007.45 1945.22 1013.41 1939.24 1013.41 1931.84C1013.41 1924.44 1007.45 1918.46 1000.1 1918.46C992.751 1918.46 986.786 1924.44 986.786 1931.84Z" fill="#F2F2F2" stroke="#F2F2F2" stroke-width="1.57232"/>
<path d="M1194.76 2124.56C1194.76 2155.44 1219.66 2180.46 1250.37 2180.46C1281.09 2180.46 1305.99 2155.44 1305.99 2124.56C1305.99 2093.69 1281.09 2068.67 1250.37 2068.67C1219.66 2068.67 1194.76 2093.69 1194.76 2124.56Z" stroke="#F2F2F2" stroke-width="1.57232"/>
<rect x="-0.786162" y="0.786162" width="111.228" height="111.794" transform="matrix(-1 0 0 1 1210.03 1831.23)" fill="#F2F2F2" stroke="#F2F2F2" stroke-width="1.57232"/>
<path d="M2.85103 861.975L142.927 1002.75V861.975H2.85103Z" fill="black" stroke="black" stroke-width="2"/>
<path d="M-140.631 717.773L-0.554626 858.552V717.773H-140.631Z" stroke="black" stroke-width="2"/>
<path d="M1.44534 646.474C1.44534 685.747 33.1218 717.575 72.1862 717.575C111.251 717.575 142.927 685.747 142.927 646.474C142.927 607.201 111.251 575.373 72.1862 575.373C33.1218 575.373 1.44534 607.201 1.44534 646.474Z" stroke="black" stroke-width="2"/>
<path d="M252.538 879C252.538 888.408 260.125 896.025 269.474 896.025C278.822 896.025 286.409 888.408 286.409 879C286.409 869.593 278.822 861.975 269.474 861.975C260.125 861.975 252.538 869.593 252.538 879Z" fill="black" stroke="black" stroke-width="2"/>
</svg>
